<svg version="1.1" id="Layer_1" xmlns="http://www.w3.org/2000/svg" xmlns:xlink="http://www.w3.org/1999/xlink" x="0px" y="0px"
	 width="100%" viewBox="0 0 490 61" enable-background="new 0 0 490 61" xml:space="preserve">
<path fill="#7FCA5E" opacity="1.000000" stroke="none" 
	d="
M77.000000,1.000000 
	C95.020897,1.000000 113.041786,1.000000 131.455353,1.333896 
	C126.862320,6.435663 121.876602,11.203534 116.710098,15.608463 
	C113.901367,15.245522 111.273430,15.245522 110.043953,15.245522 
	C109.834229,19.404951 110.932022,25.936930 109.156059,26.844311 
	C105.673912,28.623430 99.990616,28.460966 96.441940,26.673134 
	C94.840332,25.866241 96.170471,19.240110 96.170471,15.139692 
	C94.648209,15.139692 92.186546,15.139692 90.091522,15.139692 
	C90.552223,17.056475 91.316086,18.873972 91.371239,20.712729 
	C91.555412,26.851660 91.711296,33.010220 91.385124,39.135006 
	C91.277939,41.147549 89.669800,43.080158 88.547775,45.297138 
	C86.264275,47.831375 84.136024,50.078712 82.108810,52.413773 
	C79.365265,55.573933 76.699265,58.801403 74.000000,62.000000 
	C60.979107,62.000000 47.958210,62.000000 34.553665,61.648369 
	C35.114727,59.039017 36.059444,56.781296 37.353867,54.404434 
	C40.839970,53.348595 44.194317,52.844814 47.072769,51.395737 
	C56.501324,46.649147 64.440704,35.526272 59.778008,18.125397 
	C65.766014,12.354749 71.383011,6.677374 77.000000,1.000000 
z"/>
<path fill="#8DD566" opacity="1.000000" stroke="none" 
	d="
M219.000000,61.999996 
	C206.312439,62.000000 193.624878,62.000000 180.503403,61.646782 
	C181.924698,59.052208 183.699677,56.737869 185.655228,54.587776 
	C188.153946,51.840458 191.730026,49.758095 191.347595,45.139805 
	C192.807266,44.997482 193.914581,44.906113 194.539597,44.854542 
	C191.818512,39.577553 192.722656,34.175636 193.605774,28.954718 
	C194.133972,25.832008 196.261063,23.565447 199.979614,24.024622 
	C203.617828,24.473881 204.381729,27.182381 204.449692,30.168619 
	C204.558548,34.952103 204.478851,39.739876 204.478851,44.805214 
	C206.727127,44.805214 208.464310,44.805214 210.016373,44.805214 
	C206.564865,39.466805 208.545731,33.587959 208.550537,27.987320 
	C210.821289,27.076561 213.036209,26.533100 214.559982,25.199778 
	C218.797287,21.492056 222.937347,17.631685 226.756348,13.499385 
	C230.406052,9.550253 233.603668,5.183297 237.000000,0.999997 
	C249.354233,1.000000 261.708466,1.000000 274.461517,1.346371 
	C273.476196,3.703607 272.340485,5.957069 270.659760,7.678410 
	C266.186829,12.259523 261.479034,16.611383 256.487915,21.053379 
	C254.236130,21.457041 252.361069,21.861734 251.286270,22.093706 
	C251.837372,24.170938 252.344711,26.083185 252.525024,28.081448 
	C250.133743,29.111507 248.069504,30.055552 245.932190,30.597273 
	C245.300308,22.093493 240.588684,19.233585 232.040298,21.600142 
	C228.603119,22.551699 227.992310,24.005623 229.233215,25.366926 
	C233.262894,24.694311 236.240768,23.804415 239.180908,23.915314 
	C240.238602,23.955208 241.675827,26.299137 242.007019,27.797735 
	C242.162750,28.502394 240.265640,30.081852 239.024323,30.577496 
	C237.059158,31.362169 234.469879,31.012581 232.858017,32.152023 
	C230.484283,33.830032 227.528854,36.182556 227.094894,38.647980 
	C226.727341,40.736126 229.585266,43.392025 230.944824,46.146404 
	C227.773315,50.206200 224.618286,53.872707 221.602127,57.650116 
	C220.557434,58.958485 219.857437,60.542103 219.000000,61.999996 
z"/>
<path fill="#94DB69" opacity="1.000000" stroke="none" 
	d="
M296.000000,62.000000 
	C283.645782,62.000000 271.291534,62.000000 258.545105,61.666264 
	C259.955353,59.201641 261.815125,57.116123 263.546692,54.929134 
	C266.077698,51.732552 268.516724,48.463146 271.314972,45.180035 
	C272.448700,45.028469 273.262390,44.921650 274.121185,44.808907 
	C273.335754,43.659317 272.766937,42.826763 272.625793,41.983017 
	C273.907166,41.916412 274.760834,41.861000 275.822205,42.050362 
	C278.306671,43.460571 280.949036,46.004425 282.787476,45.516880 
	C287.202881,44.345943 291.450836,44.713829 295.221191,45.273937 
	C292.888153,37.419518 294.262848,29.653318 294.460571,21.913532 
	C299.011597,17.898888 303.367157,14.093694 307.420807,9.990247 
	C310.166870,7.210481 312.488525,4.011497 315.000000,1.000000 
	C327.687561,1.000000 340.375122,1.000000 353.453735,1.336905 
	C349.537109,6.125145 345.229462,10.576480 340.497314,14.999577 
	C337.763184,14.971337 335.453583,14.971337 333.620667,14.971337 
	C336.316376,22.522316 335.222595,29.944181 334.387665,37.477924 
	C329.630096,31.437298 325.283783,25.356276 321.381683,19.002462 
	C319.285919,15.589980 317.023071,13.889716 313.717255,15.184582 
	C314.227112,17.215956 315.015656,18.994261 315.062408,20.791868 
	C315.222443,26.944649 315.357361,33.118526 314.983978,39.252831 
	C314.865173,41.204819 313.130615,43.058456 311.846130,45.141888 
	C309.426605,47.345814 307.174194,49.252720 305.194244,51.409767 
	C302.034241,54.852409 299.055420,58.461357 296.000000,62.000000 
z"/>
<path fill="#9EE370" opacity="1.000000" stroke="none" 
	d="
M411.000000,1.000005 
	C422.020905,1.000000 433.041779,1.000000 444.455261,1.333869 
	C438.548645,8.118012 432.249451,14.568288 425.583862,21.037722 
	C423.676819,21.489412 422.136200,21.921946 421.007233,22.238899 
	C421.496643,23.989353 421.908630,25.462881 421.990997,27.076397 
	C418.221039,29.475117 414.780670,31.733852 411.276489,33.543526 
	C411.212646,30.157152 411.212646,27.219837 411.212646,24.440321 
	C413.285767,23.785353 414.787811,23.310806 415.451141,23.101244 
	C413.614075,20.732645 411.793427,18.385218 409.367706,15.257662 
	C408.300079,17.644073 407.107819,20.309055 406.472565,21.728968 
	C408.760437,28.740505 407.510620,34.948914 407.338257,40.996040 
	C405.861816,41.024288 404.788147,41.049850 403.587067,40.684685 
	C403.459686,34.022968 403.459686,27.751982 403.459686,20.989824 
	C400.987091,21.554502 399.413940,21.913776 397.743561,22.295248 
	C400.744934,26.461250 400.865570,41.021519 398.019836,44.875637 
	C398.705963,44.998138 399.349915,45.113113 399.966003,45.573250 
	C397.159302,49.245724 394.279633,52.495605 391.642059,55.931339 
	C390.214783,57.790508 389.200562,59.966782 388.000000,62.000000 
	C376.979095,62.000000 365.958221,62.000000 354.539612,61.655472 
	C358.850037,55.692772 363.558167,50.074593 368.592377,44.617737 
	C372.205780,46.435925 374.793060,45.849957 376.923615,42.279259 
	C375.264221,42.436867 374.044891,42.552677 372.965454,42.314255 
	C375.995148,39.304523 378.884918,36.649029 381.836975,34.432701 
	C381.640961,38.173744 381.382660,41.475620 381.125397,44.764248 
	C382.668976,44.764248 385.176514,44.764248 387.267456,44.764248 
	C384.077484,39.018967 385.095734,33.257771 386.641266,27.280331 
	C386.699432,26.819286 386.615326,26.547901 386.531219,26.276522 
	C386.326965,26.487751 386.122711,26.698973 385.667114,26.709696 
	C385.377106,25.670591 385.338409,24.831985 385.638336,23.886814 
	C389.124176,22.012444 392.579742,20.625362 395.344635,18.385626 
	C399.275665,15.201228 402.833221,11.514720 406.285187,7.796566 
	C408.142334,5.796165 409.446381,3.282230 411.000000,1.000005 
M424.108368,16.685122 
	C425.022369,15.781400 426.324615,15.018333 426.720093,13.926690 
	C427.005188,13.139751 426.082886,11.915360 425.699127,10.886085 
	C424.984009,11.323466 424.268921,11.760848 423.553802,12.198229 
	C423.553802,13.625119 423.553802,15.052009 424.108368,16.685122 
z"/>
<path fill="#A2E672" opacity="1.000000" stroke="none" 
	d="
M403.714417,41.075417 
	C404.788147,41.049850 405.861816,41.024288 407.439270,41.351723 
	C410.775360,46.875011 413.496185,47.124664 417.509979,42.582569 
	C412.124451,42.959522 411.278015,42.152447 411.164032,36.449276 
	C411.147705,35.631878 411.277924,34.811554 411.340332,33.992584 
	C414.780670,31.733852 418.221039,29.475117 422.125336,27.462795 
	C422.298462,33.679054 424.760315,39.978313 419.977814,45.863388 
	C422.997620,45.448006 425.504913,45.103119 426.555054,44.958668 
	C426.349365,36.817490 426.149811,28.918022 425.950256,21.018559 
	C432.249451,14.568288 438.548645,8.118012 444.923920,1.333869 
	C454.687561,1.000000 464.375122,1.000000 474.454895,1.333736 
	C473.646790,3.196195 472.554230,4.826481 471.226715,6.235360 
	C466.511597,11.239390 461.716370,16.167915 456.580475,21.103580 
	C454.361176,21.491840 452.512909,21.901579 451.933807,22.029959 
	C452.294067,25.338696 452.602203,28.168701 452.631592,30.998505 
	C451.981140,30.997868 451.609436,30.997435 451.131775,30.642689 
	C449.427948,21.402184 439.039032,17.726906 431.652618,24.207996 
	C425.800262,29.343073 426.980011,38.796120 433.993317,45.285503 
	C432.606262,47.637592 431.372162,49.727013 429.860291,51.591114 
	C426.990906,55.128914 423.962402,58.537647 421.000000,62.000000 
	C410.312439,62.000000 399.624878,62.000000 388.468658,62.000000 
	C389.200562,59.966782 390.214783,57.790508 391.642059,55.931339 
	C394.279633,52.495605 397.159302,49.245724 400.346802,45.499001 
	C402.160248,45.079590 403.565002,45.079590 404.931000,45.079590 
	C404.469971,43.562210 404.092194,42.318817 403.714417,41.075417 
z"/>
<path fill="#8AD264" opacity="1.000000" stroke="none" 
	d="
M190.995224,45.190762 
	C191.730026,49.758095 188.153946,51.840458 185.655228,54.587776 
	C183.699677,56.737869 181.924698,59.052208 180.034744,61.646782 
	C167.312439,62.000000 154.624878,62.000000 141.545227,61.666309 
	C145.028656,57.125328 148.936234,52.946907 152.762543,48.695335 
	C154.131607,47.174126 156.387512,45.465225 152.930847,43.579834 
	C154.006851,43.070393 155.637115,42.664597 155.652084,42.717255 
	C156.697449,46.400585 159.069763,45.163677 161.479507,44.697567 
	C160.669586,43.594921 160.088303,42.803551 159.726288,41.681042 
	C161.984116,39.900558 164.022644,38.451206 166.133606,37.406487 
	C165.822205,40.174297 165.438416,42.537479 165.055649,44.894276 
	C167.008636,44.894276 169.425400,44.894276 170.363312,44.894276 
	C170.299286,39.803581 170.237610,34.899315 170.490784,29.928879 
	C171.837357,29.574049 172.869080,29.285389 173.970154,29.456242 
	C174.099777,33.579746 173.763474,37.313599 174.391266,40.877625 
	C174.695343,42.603840 176.553497,44.825123 178.174103,45.331917 
	C179.758713,45.827461 181.936157,44.427296 182.960266,44.123871 
	C180.944153,42.074444 178.378677,40.695061 178.184601,39.037952 
	C177.612747,34.155071 177.980515,29.162148 177.980515,24.348860 
	C182.029510,23.346733 182.029510,23.346733 182.071564,20.826515 
	C183.528748,18.137356 184.913162,15.804984 186.703812,13.594854 
	C187.794724,14.835910 189.045471,15.941034 189.072906,17.075737 
	C189.260773,24.844099 189.258972,32.619637 189.145828,40.390354 
	C189.124863,41.829796 188.321228,43.257835 187.817978,44.888290 
	C188.750763,44.977089 189.872986,45.083927 190.995224,45.190762 
z"/>
<path fill="#91D868" opacity="1.000000" stroke="none" 
	d="
M270.994934,45.224781 
	C268.516724,48.463146 266.077698,51.732552 263.546692,54.929134 
	C261.815125,57.116123 259.955353,59.201641 258.076477,61.666264 
	C245.312439,62.000000 232.624878,62.000000 219.468658,61.999996 
	C219.857437,60.542103 220.557434,58.958485 221.602127,57.650116 
	C224.618286,53.872707 227.773315,50.206200 231.344345,46.139278 
	C235.150391,44.778748 238.485916,43.775074 241.782944,42.782974 
	C243.170105,43.552025 245.204636,44.679993 246.646713,45.479488 
	C246.410889,40.156158 246.208069,35.577877 246.005249,30.999596 
	C248.069504,30.055552 250.133743,29.111507 252.598511,28.542999 
	C252.849945,34.260509 252.700867,39.602486 252.555542,44.809303 
	C253.894592,44.809303 256.133057,44.809303 257.812134,44.809303 
	C256.418182,38.962112 255.800446,33.190876 258.072540,27.767633 
	C258.815063,25.995340 262.163788,24.253141 264.160004,24.419872 
	C265.630829,24.542719 267.665588,27.657490 267.990509,29.674118 
	C268.616760,33.560764 267.991272,37.634136 268.358582,41.586052 
	C268.477875,42.869553 270.074188,44.015770 270.994934,45.224781 
z"/>
<path fill="#86CF62" opacity="1.000000" stroke="none" 
	d="
M152.731201,43.897438 
	C156.387512,45.465225 154.131607,47.174126 152.762543,48.695335 
	C148.936234,52.946907 145.028656,57.125328 141.076569,61.666309 
	C128.979111,62.000000 116.958214,62.000000 104.545181,61.666286 
	C107.142830,58.013870 110.290749,54.820141 113.054626,51.322914 
	C114.404907,49.614376 115.040054,47.340672 116.277267,45.237183 
	C116.745491,45.110882 116.935333,45.070171 117.460251,45.003281 
	C118.859230,44.652351 119.923134,44.327606 121.343658,44.109856 
	C128.212936,47.048084 133.083878,46.022522 135.388275,41.334888 
	C124.471916,44.527481 119.831802,41.358913 121.515480,31.102507 
	C126.587273,31.102507 131.785645,31.102507 137.080627,31.102507 
	C137.080627,28.939676 137.080627,27.459301 137.397797,25.909466 
	C139.088181,25.227104 140.461411,24.614201 142.019684,24.277361 
	C142.622314,25.232689 143.039902,25.911955 143.457504,26.591221 
	C143.480927,26.051443 143.504349,25.511665 143.527771,24.971888 
	C146.625778,24.581104 149.834625,23.555029 152.774948,24.068016 
	C154.241302,24.323843 155.216339,27.395920 156.899323,29.923595 
	C153.224380,30.462952 151.065186,30.594521 149.007584,31.122261 
	C145.272583,32.080223 141.119492,33.184971 140.366776,37.530563 
	C139.980606,39.760021 141.223129,44.135078 142.450424,44.418434 
	C145.665863,45.160793 149.277481,44.187157 152.731201,43.897438 
z"/>
<path fill="#79C45B" opacity="1.000000" stroke="none" 
	d="
M76.531342,1.000000 
	C71.383011,6.677374 65.766014,12.354749 59.597229,17.852493 
	C50.867146,-0.882022 29.527267,-1.089779 17.512236,10.056124 
	C9.959545,17.062479 5.401599,28.066666 13.233724,43.586697 
	C9.028777,47.615143 5.014388,51.307571 1.000000,55.000000 
	C1.000000,37.060783 1.000000,19.121571 1.000000,1.000000 
	C26.020599,1.000000 51.041641,1.000000 76.531342,1.000000 
z"/>
<path fill="#98DE6C" opacity="1.000000" stroke="none" 
	d="
M340.921814,15.027818 
	C345.229462,10.576480 349.537109,6.125145 353.922363,1.336905 
	C363.687561,1.000000 373.375122,1.000000 383.455017,1.333784 
	C379.431061,6.177924 375.014801,10.688281 370.241699,15.220140 
	C368.882843,16.266321 367.746155,17.193115 366.912720,18.340240 
	C365.851837,19.800451 365.036438,21.439032 363.820496,23.000793 
	C363.329285,23.001020 363.132812,23.001162 362.806702,22.675797 
	C360.671204,22.096907 358.665314,21.843529 356.561584,21.577789 
	C360.260071,28.251850 359.133575,34.149742 356.955750,40.332024 
	C354.465332,41.156998 351.641541,42.809101 350.134949,42.002121 
	C348.483246,41.117416 347.413940,38.021378 347.211578,35.787453 
	C346.782349,31.048885 347.080658,26.244413 347.080658,21.034466 
	C344.858368,21.546839 343.143921,21.942120 341.989624,22.208258 
	C342.565369,24.528732 343.295105,26.486700 343.501526,28.498371 
	C343.989716,33.255337 344.229187,38.037830 344.186493,43.004215 
	C341.914764,43.801502 340.025726,44.404575 338.137054,44.593224 
	C338.159607,36.789146 337.967957,29.389055 338.327911,22.015894 
	C338.443420,19.649963 340.015900,17.355162 340.921814,15.027818 
z"/>
<path fill="#86CF62" opacity="1.000000" stroke="none" 
	d="
M166.061188,37.001858 
	C164.022644,38.451206 161.984116,39.900558 159.573029,41.216549 
	C159.127335,37.256264 159.049286,33.429424 158.982147,29.602390 
	C158.869965,23.206169 156.567459,20.939680 150.112411,21.030148 
	C148.456146,21.053360 146.803772,21.354008 145.177124,21.157684 
	C148.296097,17.199293 151.406006,13.626122 154.473221,10.016659 
	C157.008347,7.033362 159.492981,4.007179 162.000000,1.000001 
	C174.354233,1.000000 186.708450,1.000000 199.454773,1.334335 
	C197.534317,4.853887 195.221802,8.039104 192.552277,11.232147 
	C190.229370,11.984187 188.263489,12.728400 186.297592,13.472613 
	C184.913162,15.804984 183.528748,18.137356 181.645020,20.926090 
	C175.885849,21.977711 179.098526,17.187664 176.539368,14.726350 
	C175.647812,16.020481 174.762711,17.163631 174.029175,18.396923 
	C171.952347,21.888706 174.659317,25.468674 173.900818,28.996731 
	C172.869080,29.285389 171.837357,29.574049 170.434525,29.463835 
	C170.063431,23.210087 170.063431,17.355213 170.063431,11.220715 
	C167.397156,11.720684 165.656662,12.047055 165.041901,12.162333 
	C167.237473,20.543573 166.136780,28.816729 166.061188,37.001858 
z"/>
<path fill="#91D867" opacity="1.000000" stroke="none" 
	d="
M275.614532,41.805588 
	C274.760834,41.861000 273.907166,41.916412 272.570312,41.518822 
	C272.048615,37.910213 271.753235,34.732796 272.019135,31.603060 
	C272.850586,21.816895 265.172180,17.806421 258.086273,23.687485 
	C257.963318,23.789524 257.557770,23.551058 257.106689,23.419884 
	C257.030518,22.675486 256.947601,21.864946 256.864655,21.054409 
	C261.479034,16.611383 266.186829,12.259523 270.659760,7.678410 
	C272.340485,5.957069 273.476196,3.703607 274.930176,1.346371 
	C288.020905,1.000000 301.041779,1.000000 314.531342,1.000000 
	C312.488525,4.011497 310.166870,7.210481 307.420807,9.990247 
	C303.367157,14.093694 299.011597,17.898888 294.399231,21.461758 
	C294.013916,17.964123 294.013916,14.835821 294.013916,11.289097 
	C291.525970,11.709717 289.639404,12.028666 288.663391,12.193672 
	C289.288635,15.167676 289.853851,17.856182 290.486816,20.866959 
	C276.873108,19.800734 268.552216,32.052765 275.614532,41.805588 
z"/>
<path fill="#A4E872" opacity="1.000000" stroke="none" 
	d="
M421.468658,62.000000 
	C423.962402,58.537647 426.990906,55.128914 429.860291,51.591114 
	C431.372162,49.727013 432.606262,47.637592 434.386841,45.344673 
	C445.642761,47.341576 450.905121,42.843887 451.237762,30.997002 
	C451.609436,30.997435 451.981140,30.997868 452.699768,31.453339 
	C452.874786,36.188904 452.702850,40.469433 452.526611,44.856293 
	C453.663177,44.856293 455.927704,44.856293 457.477661,44.856293 
	C457.477661,39.279625 457.089264,33.888817 457.631775,28.593380 
	C457.929657,25.685535 460.292297,23.575331 463.778290,24.064465 
	C467.386871,24.570801 468.174713,27.208153 468.185150,30.272692 
	C468.201630,35.102699 468.136536,39.932983 468.064087,45.137039 
	C465.248993,48.939823 462.384949,52.300529 459.738831,55.824841 
	C458.301239,57.739574 457.234192,59.932537 456.000000,62.000000 
	C444.645782,62.000000 433.291534,62.000000 421.468658,62.000000 
z"/>
<path fill="#A6EB72" opacity="1.000000" stroke="none" 
	d="
M456.468658,62.000000 
	C457.234192,59.932537 458.301239,57.739574 459.738831,55.824841 
	C462.384949,52.300529 465.248993,48.939823 468.451233,45.219597 
	C470.567780,44.928265 472.255310,44.928265 472.919037,44.928265 
	C472.648834,42.089664 472.406433,39.542618 472.513184,36.968964 
	C474.838867,35.530956 476.919861,34.243534 478.770599,32.682983 
	C482.907990,29.194235 486.930603,25.569393 491.000000,22.000000 
	C491.000000,35.255066 491.000000,48.510132 491.000000,62.000000 
	C479.646851,62.000000 468.292084,62.000000 456.468658,62.000000 
z"/>
<path fill="#89D263" opacity="1.000000" stroke="none" 
	d="
M192.909286,11.224325 
	C195.221802,8.039104 197.534317,4.853887 199.923431,1.334335 
	C212.020889,1.000000 224.041794,1.000000 236.531342,0.999997 
	C233.603668,5.183297 230.406052,9.550253 226.756348,13.499385 
	C222.937347,17.631685 218.797287,21.492056 214.559982,25.199778 
	C213.036209,26.533100 210.821289,27.076561 208.451630,27.629507 
	C205.471512,20.283623 203.265137,19.691626 192.909286,23.628300 
	C192.909286,19.351856 192.909286,15.288092 192.909286,11.224325 
z"/>
<path fill="#85CD62" opacity="1.000000" stroke="none" 
	d="
M161.531342,1.000001 
	C159.492981,4.007179 157.008347,7.033362 154.473221,10.016659 
	C151.406006,13.626122 148.296097,17.199293 144.896729,21.298254 
	C143.670746,22.539322 142.752686,23.270309 141.834641,24.001297 
	C140.461411,24.614201 139.088181,25.227104 137.132660,25.819016 
	C136.380890,25.876417 136.211380,25.954813 136.031403,26.039055 
	C136.020950,26.044903 136.063843,26.045916 136.111862,25.674173 
	C132.686905,20.585682 127.723480,19.652227 122.846481,22.798616 
	C115.870628,27.299091 115.048256,36.677006 120.987038,44.002861 
	C119.923134,44.327606 118.859230,44.652351 117.304749,44.644737 
	C116.089508,43.297241 114.771301,42.302536 114.735542,41.263680 
	C114.484459,33.970226 114.389763,26.665466 114.538322,19.370291 
	C114.561714,18.221834 116.069458,17.103607 116.890884,15.971403 
	C121.876602,11.203534 126.862320,6.435663 131.924011,1.333896 
	C141.687561,1.000000 151.375122,1.000000 161.531342,1.000001 
z"/>
<path fill="#85CD62" opacity="1.000000" stroke="none" 
	d="
M115.998886,45.322777 
	C115.040054,47.340672 114.404907,49.614376 113.054626,51.322914 
	C110.290749,54.820141 107.142830,58.013870 104.076523,61.666286 
	C94.312439,62.000000 84.624878,62.000000 74.468658,62.000000 
	C76.699265,58.801403 79.365265,55.573933 82.108810,52.413773 
	C84.136024,50.078712 86.264275,47.831375 89.002869,45.324326 
	C92.136574,45.103699 94.614944,45.103699 96.177025,45.103699 
	C95.828384,40.006008 95.496269,35.149967 95.153297,30.135275 
	C100.792267,30.135275 105.383438,30.135275 110.923233,30.135275 
	C110.446198,35.307056 110.001915,40.123775 109.559502,44.920193 
	C111.378555,45.033920 113.688728,45.178349 115.998886,45.322777 
z"/>
<path fill="#9AE06D" opacity="1.000000" stroke="none" 
	d="
M370.598541,15.198631 
	C375.014801,10.688281 379.431061,6.177924 383.923645,1.333784 
	C392.687561,1.000000 401.375122,1.000000 410.531342,1.000005 
	C409.446381,3.282230 408.142334,5.796165 406.285187,7.796566 
	C402.833221,11.514720 399.275665,15.201228 395.344635,18.385626 
	C392.579742,20.625362 389.124176,22.012444 385.578217,23.510731 
	C383.806396,18.377914 381.287415,23.374838 379.469727,22.343786 
	C383.579193,25.694551 381.480530,30.088428 381.774719,33.993530 
	C378.884918,36.649029 375.995148,39.304523 372.587402,42.086876 
	C371.579803,36.750996 370.806427,31.287298 370.824829,25.826284 
	C370.828827,24.645109 373.680664,23.473539 375.155029,22.347710 
	C370.639038,20.716370 370.639038,20.716370 370.598541,15.198631 
z"/>
<path fill="#98DE6C" opacity="1.000000" stroke="none" 
	d="
M296.468658,62.000000 
	C299.055420,58.461357 302.034241,54.852409 305.194244,51.409767 
	C307.174194,49.252720 309.426605,47.345814 312.270203,45.188343 
	C315.371368,45.050011 317.759094,45.050011 319.776337,45.050011 
	C316.543335,37.216244 318.646912,29.588545 318.583923,21.972614 
	C323.682190,28.685032 328.142609,35.644581 332.940674,42.362999 
	C333.989014,43.830925 336.242493,44.438202 337.933868,45.835785 
	C336.675415,48.262306 335.593353,50.426765 334.135406,52.298458 
	C331.543701,55.625835 328.724213,58.775814 326.000000,62.000000 
	C316.312439,62.000000 306.624878,62.000000 296.468658,62.000000 
z"/>
<path fill="#A3E871" opacity="1.000000" stroke="none" 
	d="
M491.000000,21.531088 
	C486.930603,25.569393 482.907990,29.194235 478.770599,32.682983 
	C476.919861,34.243534 474.838867,35.530956 472.454559,36.515808 
	C472.024963,34.112255 472.040527,32.134007 471.974915,30.158449 
	C471.689270,21.561798 466.695312,18.828915 459.161835,23.116507 
	C458.662598,23.400650 458.088043,23.552475 457.231323,23.891289 
	C457.111633,22.708023 457.031586,21.916550 456.951538,21.125069 
	C461.716370,16.167915 466.511597,11.239390 471.226715,6.235360 
	C472.554230,4.826481 473.646790,3.196195 474.923584,1.333736 
	C480.269348,1.000000 485.538727,1.000000 491.000000,1.000000 
	C491.000000,7.686510 491.000000,14.374343 491.000000,21.531088 
z"/>
<path fill="#9AE06D" opacity="1.000000" stroke="none" 
	d="
M326.468658,62.000000 
	C328.724213,58.775814 331.543701,55.625835 334.135406,52.298458 
	C335.593353,50.426765 336.675415,48.262306 337.926025,45.750500 
	C337.925293,45.271263 338.136719,45.007656 338.136719,45.007652 
	C340.025726,44.404575 341.914764,43.801502 344.436646,43.227184 
	C348.907745,46.881214 352.032928,46.655987 357.412720,42.491478 
	C359.813293,43.609848 361.805267,44.632568 362.936310,45.213272 
	C362.936310,37.341347 362.936310,30.171326 362.936310,23.001305 
	C363.132812,23.001162 363.329285,23.001020 364.116455,23.241863 
	C365.459106,25.015385 366.682739,26.490652 366.876984,28.090889 
	C367.536346,33.522240 367.831818,38.997761 368.266296,44.456413 
	C363.558167,50.074593 358.850037,55.692772 354.070953,61.655472 
	C344.979095,62.000000 335.958221,62.000000 326.468658,62.000000 
z"/>
<path fill="#7CC75C" opacity="1.000000" stroke="none" 
	d="
M1.000000,55.497906 
	C5.014388,51.307571 9.028777,47.615143 13.485724,43.826736 
	C19.876284,51.057079 27.460346,54.885380 37.004166,54.523575 
	C36.059444,56.781296 35.114727,59.039017 34.085007,61.648369 
	C22.999949,62.000000 11.999897,62.000000 1.000000,62.000000 
	C1.000000,59.945599 1.000000,57.970707 1.000000,55.497906 
z"/>
<path fill="#F3FAF0" opacity="1.000000" stroke="none" 
	d="
M37.353867,54.404434 
	C27.460346,54.885380 19.876284,51.057079 13.676282,43.490715 
	C5.401599,28.066666 9.959545,17.062479 17.512236,10.056124 
	C29.527267,-1.089779 50.867146,-0.882022 59.226212,17.945770 
	C64.440704,35.526272 56.501324,46.649147 47.072769,51.395737 
	C44.194317,52.844814 40.839970,53.348595 37.353867,54.404434 
M42.227303,48.297127 
	C42.868458,47.883080 43.509613,47.469028 44.430740,47.716354 
	C46.213055,47.187481 48.361111,47.123695 49.719376,46.055580 
	C59.878983,38.066261 60.996334,21.544447 52.172745,12.327512 
	C42.960266,2.704350 27.610888,3.096126 18.485052,13.187353 
	C11.437334,20.980625 10.058125,30.870811 14.826035,39.425842 
	C19.745647,48.253075 29.724970,53.133480 39.122715,51.122345 
	C40.195858,50.892685 41.048897,49.634499 42.227303,48.297127 
z"/>
<path fill="#F8FCF6" opacity="1.000000" stroke="none" 
	d="
M116.277275,45.237183 
	C113.688728,45.178349 111.378555,45.033920 109.559502,44.920193 
	C110.001915,40.123775 110.446198,35.307056 110.923233,30.135275 
	C105.383438,30.135275 100.792267,30.135275 95.153297,30.135275 
	C95.496269,35.149967 95.828384,40.006008 96.177025,45.103699 
	C94.614944,45.103699 92.136574,45.103699 89.203117,45.076508 
	C89.669800,43.080158 91.277939,41.147549 91.385124,39.135006 
	C91.711296,33.010220 91.555412,26.851660 91.371239,20.712729 
	C91.316086,18.873972 90.552223,17.056475 90.091522,15.139692 
	C92.186546,15.139692 94.648209,15.139692 96.170471,15.139692 
	C96.170471,19.240110 94.840332,25.866241 96.441940,26.673134 
	C99.990616,28.460966 105.673912,28.623430 109.156059,26.844311 
	C110.932022,25.936930 109.834229,19.404951 110.043953,15.245522 
	C111.273430,15.245522 113.901367,15.245522 116.710091,15.608461 
	C116.069458,17.103607 114.561714,18.221834 114.538322,19.370291 
	C114.389763,26.665466 114.484459,33.970226 114.735542,41.263680 
	C114.771301,42.302536 116.089508,43.297241 116.969681,44.670921 
	C116.935333,45.070171 116.745491,45.110882 116.277275,45.237183 
z"/>
<path fill="#F5FBF2" opacity="1.000000" stroke="none" 
	d="
M192.552277,11.232150 
	C192.909286,15.288092 192.909286,19.351856 192.909286,23.628300 
	C203.265137,19.691626 205.471512,20.283623 208.080383,27.636345 
	C208.545731,33.587959 206.564865,39.466805 210.016373,44.805214 
	C208.464310,44.805214 206.727127,44.805214 204.478851,44.805214 
	C204.478851,39.739876 204.558548,34.952103 204.449692,30.168619 
	C204.381729,27.182381 203.617828,24.473881 199.979614,24.024622 
	C196.261063,23.565447 194.133972,25.832008 193.605774,28.954718 
	C192.722656,34.175636 191.818512,39.577553 194.539597,44.854542 
	C193.914581,44.906113 192.807266,44.997482 191.347595,45.139805 
	C189.872986,45.083927 188.750763,44.977089 187.817978,44.888290 
	C188.321228,43.257835 189.124863,41.829796 189.145828,40.390354 
	C189.258972,32.619637 189.260773,24.844099 189.072906,17.075737 
	C189.045471,15.941034 187.794724,14.835910 186.703812,13.594854 
	C188.263489,12.728400 190.229370,11.984187 192.552277,11.232150 
z"/>
<path fill="#F3FBEE" opacity="1.000000" stroke="none" 
	d="
M245.932190,30.597271 
	C246.208069,35.577877 246.410889,40.156158 246.646713,45.479488 
	C245.204636,44.679993 243.170105,43.552025 241.782944,42.782974 
	C238.485916,43.775074 235.150391,44.778748 231.415344,45.789547 
	C229.585266,43.392025 226.727341,40.736126 227.094894,38.647980 
	C227.528854,36.182556 230.484283,33.830032 232.858017,32.152023 
	C234.469879,31.012581 237.059158,31.362169 239.024323,30.577496 
	C240.265640,30.081852 242.162750,28.502394 242.007019,27.797735 
	C241.675827,26.299137 240.238602,23.955208 239.180908,23.915314 
	C236.240768,23.804415 233.262894,24.694311 229.233215,25.366926 
	C227.992310,24.005623 228.603119,22.551699 232.040298,21.600142 
	C240.588684,19.233585 245.300308,22.093493 245.932190,30.597271 
M240.446564,32.358925 
	C237.695999,33.314724 234.619049,33.807289 232.331009,35.419502 
	C231.166748,36.239864 230.717682,39.330708 231.291367,40.904549 
	C231.651871,41.893566 234.644424,42.647774 236.220474,42.331791 
	C240.751907,41.423267 242.628799,37.336899 240.446564,32.358925 
z"/>
<path fill="#F4FBF1" opacity="1.000000" stroke="none" 
	d="
M256.487915,21.053379 
	C256.947601,21.864946 257.030518,22.675486 257.106689,23.419884 
	C257.557770,23.551058 257.963318,23.789524 258.086273,23.687485 
	C265.172180,17.806421 272.850586,21.816895 272.019135,31.603060 
	C271.753235,34.732796 272.048615,37.910213 272.142639,41.530014 
	C272.766937,42.826763 273.335754,43.659317 274.121185,44.808907 
	C273.262390,44.921650 272.448700,45.028469 271.314972,45.180035 
	C270.074188,44.015770 268.477875,42.869553 268.358582,41.586052 
	C267.991272,37.634136 268.616760,33.560764 267.990509,29.674118 
	C267.665588,27.657490 265.630829,24.542719 264.160004,24.419872 
	C262.163788,24.253141 258.815063,25.995340 258.072540,27.767633 
	C255.800446,33.190876 256.418182,38.962112 257.812134,44.809303 
	C256.133057,44.809303 253.894592,44.809303 252.555542,44.809303 
	C252.700867,39.602486 252.849945,34.260509 252.925537,28.456984 
	C252.344711,26.083185 251.837372,24.170938 251.286270,22.093706 
	C252.361069,21.861734 254.236130,21.457041 256.487915,21.053379 
z"/>
<path fill="#F5FCF1" opacity="1.000000" stroke="none" 
	d="
M338.137054,44.593227 
	C338.136719,45.007656 337.925293,45.271263 337.933105,45.356552 
	C336.242493,44.438202 333.989014,43.830925 332.940674,42.362999 
	C328.142609,35.644581 323.682190,28.685032 318.583923,21.972614 
	C318.646912,29.588545 316.543335,37.216244 319.776337,45.050011 
	C317.759094,45.050011 315.371368,45.050011 312.559509,45.003555 
	C313.130615,43.058456 314.865173,41.204819 314.983978,39.252831 
	C315.357361,33.118526 315.222443,26.944649 315.062408,20.791868 
	C315.015656,18.994261 314.227112,17.215956 313.717255,15.184582 
	C317.023071,13.889716 319.285919,15.589980 321.381683,19.002462 
	C325.283783,25.356276 329.630096,31.437298 334.387665,37.477924 
	C335.222595,29.944181 336.316376,22.522316 333.620667,14.971337 
	C335.453583,14.971337 337.763184,14.971337 340.497314,14.999578 
	C340.015900,17.355162 338.443420,19.649963 338.327911,22.015894 
	C337.967957,29.389055 338.159607,36.789146 338.137054,44.593227 
z"/>
<path fill="#F5FCF1" opacity="1.000000" stroke="none" 
	d="
M275.822205,42.050362 
	C268.552216,32.052765 276.873108,19.800734 290.486816,20.866959 
	C289.853851,17.856182 289.288635,15.167676 288.663391,12.193672 
	C289.639404,12.028666 291.525970,11.709717 294.013916,11.289097 
	C294.013916,14.835821 294.013916,17.964123 294.075226,21.544201 
	C294.262848,29.653318 292.888153,37.419518 295.221191,45.273937 
	C291.450836,44.713829 287.202881,44.345943 282.787476,45.516880 
	C280.949036,46.004425 278.306671,43.460571 275.822205,42.050362 
M283.049164,42.526672 
	C287.431427,43.581959 289.286316,40.971130 289.845306,37.342796 
	C290.320648,34.257133 289.995880,31.057133 290.221100,27.921795 
	C290.506622,23.946339 288.302032,22.989670 284.984222,23.410561 
	C281.171600,23.894222 278.624695,25.844782 277.719543,29.800028 
	C276.497314,35.140686 277.941040,39.241875 283.049164,42.526672 
z"/>
<path fill="#F8FDF4" opacity="1.000000" stroke="none" 
	d="
M368.592377,44.617737 
	C367.831818,38.997761 367.536346,33.522240 366.876984,28.090889 
	C366.682739,26.490652 365.459106,25.015385 364.411194,23.241779 
	C365.036438,21.439032 365.851837,19.800451 366.912720,18.340240 
	C367.746155,17.193115 368.882843,16.266321 370.241699,15.220134 
	C370.639038,20.716370 370.639038,20.716370 375.155029,22.347710 
	C373.680664,23.473539 370.828827,24.645109 370.824829,25.826284 
	C370.806427,31.287298 371.579803,36.750996 372.447510,42.441116 
	C374.044891,42.552677 375.264221,42.436867 376.923615,42.279259 
	C374.793060,45.849957 372.205780,46.435925 368.592377,44.617737 
z"/>
<path fill="#F8FDF4" opacity="1.000000" stroke="none" 
	d="
M411.276489,33.543526 
	C411.277924,34.811554 411.147705,35.631878 411.164032,36.449276 
	C411.278015,42.152447 412.124451,42.959522 417.509979,42.582569 
	C413.496185,47.124664 410.775360,46.875011 407.841980,41.349041 
	C407.510620,34.948914 408.760437,28.740505 406.472565,21.728968 
	C407.107819,20.309055 408.300079,17.644073 409.367706,15.257662 
	C411.793427,18.385218 413.614075,20.732645 415.451141,23.101244 
	C414.787811,23.310806 413.285767,23.785353 411.212646,24.440321 
	C411.212646,27.219837 411.212646,30.157152 411.276489,33.543526 
z"/>
<path fill="#FAFDF9" opacity="1.000000" stroke="none" 
	d="
M381.836975,34.432701 
	C381.480530,30.088428 383.579193,25.694551 379.469727,22.343786 
	C381.287415,23.374838 383.806396,18.377914 385.239563,23.617294 
	C385.338409,24.831985 385.377106,25.670591 385.808411,26.853621 
	C386.201050,27.198044 386.498993,27.469990 386.498993,27.469990 
	C385.095734,33.257771 384.077484,39.018967 387.267456,44.764248 
	C385.176514,44.764248 382.668976,44.764248 381.125397,44.764248 
	C381.382660,41.475620 381.640961,38.173744 381.836975,34.432701 
z"/>
<path fill="#FDFEFB" opacity="1.000000" stroke="none" 
	d="
M425.583862,21.037718 
	C426.149811,28.918022 426.349365,36.817490 426.555054,44.958668 
	C425.504913,45.103119 422.997620,45.448006 419.977814,45.863388 
	C424.760315,39.978313 422.298462,33.679054 422.454956,27.322807 
	C421.908630,25.462881 421.496643,23.989353 421.007233,22.238899 
	C422.136200,21.921946 423.676819,21.489412 425.583862,21.037718 
z"/>
<path fill="#FDFEFB" opacity="1.000000" stroke="none" 
	d="
M403.587036,40.684685 
	C404.092194,42.318817 404.469971,43.562210 404.931000,45.079590 
	C403.565002,45.079590 402.160248,45.079590 400.374695,45.153839 
	C399.349915,45.113113 398.705963,44.998138 398.019836,44.875637 
	C400.865570,41.021519 400.744934,26.461250 397.743561,22.295248 
	C399.413940,21.913776 400.987091,21.554502 403.459686,20.989824 
	C403.459686,27.751982 403.459686,34.022968 403.587036,40.684685 
z"/>
<path fill="#A2E672" opacity="1.000000" stroke="none" 
	d="
M423.831085,16.582010 
	C423.553802,15.052009 423.553802,13.625119 423.553802,12.198229 
	C424.268921,11.760848 424.984009,11.323466 425.699127,10.886085 
	C426.082886,11.915360 427.005188,13.139751 426.720093,13.926690 
	C426.324615,15.018333 425.022369,15.781400 423.831085,16.582010 
z"/>
<path fill="#FAFDF9" opacity="1.000000" stroke="none" 
	d="
M386.059753,27.054119 
	C386.122711,26.698973 386.326965,26.487751 386.531219,26.276522 
	C386.615326,26.547901 386.699432,26.819286 386.641266,27.280331 
	C386.498993,27.469990 386.201050,27.198044 386.059753,27.054119 
z"/>
<path fill="#F6FDF1" opacity="1.000000" stroke="none" 
	d="
M456.580505,21.103592 
	C457.031586,21.916550 457.111633,22.708023 457.231323,23.891289 
	C458.088043,23.552475 458.662598,23.400650 459.161835,23.116507 
	C466.695312,18.828915 471.689270,21.561798 471.974915,30.158449 
	C472.040527,32.134007 472.024963,34.112255 472.105347,36.542419 
	C472.406433,39.542618 472.648834,42.089664 472.919037,44.928265 
	C472.255310,44.928265 470.567780,44.928265 468.493103,44.845707 
	C468.136536,39.932983 468.201630,35.102699 468.185150,30.272692 
	C468.174713,27.208153 467.386871,24.570801 463.778290,24.064465 
	C460.292297,23.575331 457.929657,25.685535 457.631775,28.593380 
	C457.089264,33.888817 457.477661,39.279625 457.477661,44.856293 
	C455.927704,44.856293 453.663177,44.856293 452.526611,44.856293 
	C452.702850,40.469433 452.874786,36.188904 452.978516,31.453543 
	C452.602203,28.168701 452.294067,25.338696 451.933807,22.029959 
	C452.512909,21.901579 454.361176,21.491840 456.580505,21.103592 
z"/>
<path fill="#F7FDF2" opacity="1.000000" stroke="none" 
	d="
M451.131775,30.642689 
	C450.905121,42.843887 445.642761,47.341576 434.414398,44.980263 
	C426.980011,38.796120 425.800262,29.343073 431.652618,24.207996 
	C439.039032,17.726906 449.427948,21.402184 451.131775,30.642689 
M447.218903,35.262180 
	C447.151031,33.770538 447.227142,32.255432 446.988678,30.791584 
	C446.225067,26.104698 443.035828,22.954350 439.263702,23.002686 
	C435.360016,23.052708 432.575775,26.124872 431.995667,31.090731 
	C431.860870,32.244766 431.788818,33.421589 431.846680,34.579998 
	C432.093719,39.527493 435.386993,43.721016 439.449585,43.682236 
	C444.210449,43.636795 446.583984,40.683384 447.218903,35.262180 
z"/>
<path fill="#F4FBF1" opacity="1.000000" stroke="none" 
	d="
M142.019684,24.277361 
	C142.752686,23.270309 143.670746,22.539322 144.869202,21.667767 
	C146.803772,21.354008 148.456146,21.053360 150.112411,21.030148 
	C156.567459,20.939680 158.869965,23.206169 158.982147,29.602390 
	C159.049286,33.429424 159.127335,37.256264 159.353745,41.547684 
	C160.088303,42.803551 160.669586,43.594921 161.479507,44.697567 
	C159.069763,45.163677 156.697449,46.400585 155.652084,42.717255 
	C155.637115,42.664597 154.006851,43.070393 152.930847,43.579830 
	C149.277481,44.187157 145.665863,45.160793 142.450424,44.418434 
	C141.223129,44.135078 139.980606,39.760021 140.366776,37.530563 
	C141.119492,33.184971 145.272583,32.080223 149.007584,31.122261 
	C151.065186,30.594521 153.224380,30.462952 156.899323,29.923595 
	C155.216339,27.395920 154.241302,24.323843 152.774948,24.068016 
	C149.834625,23.555029 146.625778,24.581104 143.527771,24.971888 
	C143.504349,25.511665 143.480927,26.051443 143.457504,26.591221 
	C143.039902,25.911955 142.622314,25.232689 142.019684,24.277361 
M147.486771,33.902557 
	C144.571426,35.289139 142.724045,37.610519 144.374695,40.598434 
	C145.045639,41.812954 148.031387,42.582493 149.702057,42.247742 
	C153.967728,41.393036 155.639343,37.844852 154.838150,32.569103 
	C154.248489,32.490284 153.579086,32.234901 152.983932,32.353165 
	C151.367081,32.674450 149.781677,33.153976 147.486771,33.902557 
z"/>
<path fill="#F0F9EB" opacity="1.000000" stroke="none" 
	d="
M173.970154,29.456244 
	C174.659317,25.468674 171.952347,21.888706 174.029175,18.396923 
	C174.762711,17.163631 175.647812,16.020481 176.539368,14.726350 
	C179.098526,17.187664 175.885849,21.977711 181.572235,21.282875 
	C182.029510,23.346733 182.029510,23.346733 177.980515,24.348860 
	C177.980515,29.162148 177.612747,34.155071 178.184601,39.037952 
	C178.378677,40.695061 180.944153,42.074444 182.960266,44.123871 
	C181.936157,44.427296 179.758713,45.827461 178.174103,45.331917 
	C176.553497,44.825123 174.695343,42.603840 174.391266,40.877625 
	C173.763474,37.313599 174.099777,33.579746 173.970154,29.456244 
z"/>
<path fill="#F0F9EB" opacity="1.000000" stroke="none" 
	d="
M166.133606,37.406487 
	C166.136780,28.816729 167.237473,20.543573 165.041901,12.162333 
	C165.656662,12.047055 167.397156,11.720684 170.063431,11.220715 
	C170.063431,17.355213 170.063431,23.210087 170.119690,29.530006 
	C170.237610,34.899315 170.299286,39.803581 170.363312,44.894276 
	C169.425400,44.894276 167.008636,44.894276 165.055649,44.894276 
	C165.438416,42.537479 165.822205,40.174297 166.133606,37.406487 
z"/>
<path fill="#F5FAF3" opacity="1.000000" stroke="none" 
	d="
M136.041855,26.033209 
	C136.211380,25.954813 136.380890,25.876417 136.815506,25.888474 
	C137.080627,27.459301 137.080627,28.939676 137.080627,31.102507 
	C131.785645,31.102507 126.587273,31.102507 121.515480,31.102507 
	C119.831802,41.358913 124.471916,44.527481 135.388275,41.334888 
	C133.083878,46.022522 128.212936,47.048084 121.343658,44.109856 
	C115.048256,36.677006 115.870628,27.299091 122.846481,22.798616 
	C127.723480,19.652227 132.686905,20.585682 135.745300,25.855339 
	C134.480759,26.022205 133.492065,25.801497 132.803253,25.223448 
	C128.144547,21.313843 123.612160,22.732893 121.882523,28.894703 
	C126.884071,29.093058 131.933411,30.062901 136.041855,26.033209 
z"/>
<path fill="#F9FDF7" opacity="1.000000" stroke="none" 
	d="
M357.004150,42.395828 
	C352.032928,46.655987 348.907745,46.881214 344.819397,43.032970 
	C344.229187,38.037830 343.989716,33.255337 343.501526,28.498371 
	C343.295105,26.486700 342.565369,24.528732 341.989624,22.208258 
	C343.143921,21.942120 344.858368,21.546839 347.080658,21.034466 
	C347.080658,26.244413 346.782349,31.048885 347.211578,35.787453 
	C347.413940,38.021378 348.483246,41.117416 350.134949,42.002121 
	C351.641541,42.809101 354.465332,41.156998 357.106262,40.474663 
	C357.691345,40.565258 357.858795,40.785095 357.901764,41.290550 
	C357.677734,41.712898 357.558197,41.864799 357.360413,42.073982 
	C357.282196,42.131264 357.004150,42.395828 357.004150,42.395828 
z"/>
<path fill="#F3FBEE" opacity="1.000000" stroke="none" 
	d="
M358.006287,41.020107 
	C357.858795,40.785095 357.691345,40.565258 357.353455,40.217957 
	C359.133575,34.149742 360.260071,28.251850 356.561584,21.577789 
	C358.665314,21.843529 360.671204,22.096907 362.806702,22.675797 
	C362.936310,30.171326 362.936310,37.341347 362.936310,45.213272 
	C361.805267,44.632568 359.813293,43.609848 357.412720,42.491478 
	C357.004150,42.395828 357.282196,42.131264 357.637085,42.134399 
	C357.996765,41.765060 358.001526,41.392582 358.006287,41.020107 
z"/>
<path fill="#85CB68" opacity="1.000000" stroke="none" 
	d="
M42.003990,48.853210 
	C41.048897,49.634499 40.195858,50.892685 39.122715,51.122345 
	C29.724970,53.133480 19.745647,48.253075 14.826035,39.425842 
	C10.058125,30.870811 11.437334,20.980625 18.485052,13.187353 
	C27.610888,3.096126 42.960266,2.704350 52.172745,12.327512 
	C60.996334,21.544447 59.878983,38.066261 49.719376,46.055580 
	C48.361111,47.123695 46.213055,47.187481 44.613403,47.306343 
	C46.136822,46.042454 47.477577,45.188576 48.494743,44.540775 
	C44.486515,40.564026 40.776974,36.883621 36.839958,32.977528 
	C36.839958,38.218906 36.839958,43.411991 36.839958,48.853210 
	C38.729813,48.853210 40.366901,48.853210 42.003990,48.853210 
M26.295343,21.250431 
	C24.184372,19.234629 22.073400,17.218828 19.237110,14.510406 
	C17.444460,19.114374 15.992390,22.843655 14.326797,27.121309 
	C20.557383,27.121309 25.709444,27.121309 30.861506,27.121309 
	C31.373577,26.457144 31.885649,25.792980 32.397720,25.128815 
	C30.531933,24.004303 28.666143,22.879791 26.295343,21.250431 
M47.529705,12.123572 
	C44.062321,10.583717 40.594936,9.043862 36.486042,7.219114 
	C36.486042,13.868365 36.486042,19.072424 36.486042,24.276484 
	C36.875191,24.535301 37.264336,24.794119 37.653484,25.052937 
	C41.110409,20.934771 44.567337,16.816605 47.529705,12.123572 
M44.809814,27.554388 
	C48.478096,27.554388 52.146381,27.554388 57.105911,27.554388 
	C54.727974,22.449121 53.044632,18.835102 51.558144,15.643716 
	C47.365078,19.945700 43.694336,23.711788 40.164120,27.333706 
	C41.023109,27.383720 42.478550,27.468464 44.809814,27.554388 
M25.974379,36.479916 
	C27.834455,34.555870 29.694534,32.631821 31.999105,30.247993 
	C25.679920,30.247993 20.452234,30.247993 13.938543,30.247993 
	C15.974252,34.751511 17.647110,38.452312 19.916599,43.473015 
	C22.453007,40.509632 23.964710,38.743454 25.974379,36.479916 
M34.147743,41.518398 
	C34.147743,38.672409 34.147743,35.826420 34.147743,33.142155 
	C29.867563,37.047165 26.014742,40.562275 21.265762,44.894989 
	C25.833002,46.635620 29.583530,48.064995 34.148178,49.804642 
	C34.148178,46.387348 34.148178,44.418568 34.147743,41.518398 
M33.965614,21.745201 
	C33.965614,17.318115 33.965614,12.891027 33.965614,7.137716 
	C29.297646,9.233407 25.576307,10.904107 21.854969,12.574807 
	C21.665771,13.214159 21.476574,13.853511 21.287376,14.492863 
	C24.660578,17.423775 28.043173,20.343979 31.402184,23.291065 
	C32.681004,24.413057 33.903568,25.589376 33.965614,21.745201 
M43.958755,35.550297 
	C46.058132,37.815975 48.157505,40.081654 51.075710,43.231026 
	C53.164623,38.234844 54.711823,34.534317 56.527241,30.192268 
	C50.321796,30.192268 45.136311,30.192268 38.861958,30.192268 
	C40.833904,32.269081 42.152332,33.657623 43.958755,35.550297 
z"/>
<path fill="#F2FAEF" opacity="1.000000" stroke="none" 
	d="
M42.115646,48.575169 
	C40.366901,48.853210 38.729813,48.853210 36.839958,48.853210 
	C36.839958,43.411991 36.839958,38.218906 36.839958,32.977528 
	C40.776974,36.883621 44.486515,40.564026 48.494743,44.540775 
	C47.477577,45.188576 46.136822,46.042454 44.473419,46.975655 
	C43.509613,47.469028 42.868458,47.883080 42.115646,48.575169 
z"/>
<path fill="#94D96E" opacity="1.000000" stroke="none" 
	d="
M240.814865,32.467754 
	C242.628799,37.336899 240.751907,41.423267 236.220474,42.331791 
	C234.644424,42.647774 231.651871,41.893566 231.291367,40.904549 
	C230.717682,39.330708 231.166748,36.239864 232.331009,35.419502 
	C234.619049,33.807289 237.695999,33.314724 240.814865,32.467754 
z"/>
<path fill="#95DB6B" opacity="1.000000" stroke="none" 
	d="
M282.693665,42.385056 
	C277.941040,39.241875 276.497314,35.140686 277.719543,29.800028 
	C278.624695,25.844782 281.171600,23.894222 284.984222,23.410561 
	C288.302032,22.989670 290.506622,23.946339 290.221100,27.921795 
	C289.995880,31.057133 290.320648,34.257133 289.845306,37.342796 
	C289.286316,40.971130 287.431427,43.581959 282.693665,42.385056 
z"/>
<path fill="#A3E772" opacity="1.000000" stroke="none" 
	d="
M447.174072,35.687157 
	C446.583984,40.683384 444.210449,43.636795 439.449585,43.682236 
	C435.386993,43.721016 432.093719,39.527493 431.846680,34.579998 
	C431.788818,33.421589 431.860870,32.244766 431.995667,31.090731 
	C432.575775,26.124872 435.360016,23.052708 439.263702,23.002686 
	C443.035828,22.954350 446.225067,26.104698 446.988678,30.791584 
	C447.227142,32.255432 447.151031,33.770538 447.174072,35.687157 
z"/>
<path fill="#8DD26A" opacity="1.000000" stroke="none" 
	d="
M147.835297,33.736664 
	C149.781677,33.153976 151.367081,32.674450 152.983932,32.353165 
	C153.579086,32.234901 154.248489,32.490284 154.838150,32.569103 
	C155.639343,37.844852 153.967728,41.393036 149.702057,42.247742 
	C148.031387,42.582493 145.045639,41.812954 144.374695,40.598434 
	C142.724045,37.610519 144.571426,35.289139 147.835297,33.736664 
z"/>
<path fill="#85CB68" opacity="1.000000" stroke="none" 
	d="
M136.031403,26.039055 
	C131.933411,30.062901 126.884071,29.093058 121.882523,28.894703 
	C123.612160,22.732893 128.144547,21.313843 132.803253,25.223448 
	C133.492065,25.801497 134.480759,26.022205 135.697266,26.227081 
	C136.063843,26.045916 136.020950,26.044903 136.031403,26.039055 
z"/>
<path fill="#9EE370" opacity="1.000000" stroke="none" 
	d="
M357.901764,41.290550 
	C358.001526,41.392582 357.996765,41.765060 357.715332,42.077118 
	C357.558197,41.864799 357.677734,41.712898 357.901764,41.290550 
z"/>
<path fill="#F0F9EB" opacity="1.000000" stroke="none" 
	d="
M26.547848,21.502855 
	C28.666143,22.879791 30.531933,24.004303 32.397720,25.128815 
	C31.885649,25.792980 31.373577,26.457144 30.861506,27.121309 
	C25.709444,27.121309 20.557383,27.121309 14.326797,27.121309 
	C15.992390,22.843655 17.444460,19.114374 19.237110,14.510406 
	C22.073400,17.218828 24.184372,19.234629 26.547848,21.502855 
z"/>
<path fill="#F5FAF3" opacity="1.000000" stroke="none" 
	d="
M47.776985,12.411006 
	C44.567337,16.816605 41.110409,20.934771 37.653484,25.052937 
	C37.264336,24.794119 36.875191,24.535301 36.486042,24.276484 
	C36.486042,19.072424 36.486042,13.868365 36.486042,7.219114 
	C40.594936,9.043862 44.062321,10.583717 47.776985,12.411006 
z"/>
<path fill="#F4FBF1" opacity="1.000000" stroke="none" 
	d="
M44.371902,27.553799 
	C42.478550,27.468464 41.023109,27.383720 40.164120,27.333706 
	C43.694336,23.711788 47.365078,19.945700 51.558144,15.643716 
	C53.044632,18.835102 54.727974,22.449121 57.105911,27.554388 
	C52.146381,27.554388 48.478096,27.554388 44.371902,27.553799 
z"/>
<path fill="#FAFDF9" opacity="1.000000" stroke="none" 
	d="
M25.725395,36.728596 
	C23.964710,38.743454 22.453007,40.509632 19.916599,43.473015 
	C17.647110,38.452312 15.974252,34.751511 13.938543,30.247993 
	C20.452234,30.247993 25.679920,30.247993 31.999105,30.247993 
	C29.694534,32.631821 27.834455,34.555870 25.725395,36.728596 
z"/>
<path fill="#F8FCF6" opacity="1.000000" stroke="none" 
	d="
M34.147961,41.984093 
	C34.148178,44.418568 34.148178,46.387348 34.148178,49.804642 
	C29.583530,48.064995 25.833002,46.635620 21.265762,44.894989 
	C26.014742,40.562275 29.867563,37.047165 34.147743,33.142155 
	C34.147743,35.826420 34.147743,38.672409 34.147961,41.984093 
z"/>
<path fill="#FDFEFB" opacity="1.000000" stroke="none" 
	d="
M33.962936,22.151728 
	C33.903568,25.589376 32.681004,24.413057 31.402184,23.291065 
	C28.043173,20.343979 24.660578,17.423775 21.287376,14.492863 
	C21.476574,13.853511 21.665771,13.214159 21.854969,12.574807 
	C25.576307,10.904107 29.297646,9.233407 33.965614,7.137716 
	C33.965614,12.891027 33.965614,17.318115 33.962936,22.151728 
z"/>
<path fill="#FAFDF9" opacity="1.000000" stroke="none" 
	d="
M43.714760,35.298233 
	C42.152332,33.657623 40.833904,32.269081 38.861958,30.192268 
	C45.136311,30.192268 50.321796,30.192268 56.527241,30.192268 
	C54.711823,34.534317 53.164623,38.234844 51.075710,43.231026 
	C48.157505,40.081654 46.058132,37.815975 43.714760,35.298233 
z"/>
</svg>