<?xml version="1.0" encoding="UTF-8"?>
<!DOCTYPE svg PUBLIC "-//W3C//DTD SVG 1.1//EN" "http://www.w3.org/Graphics/SVG/1.1/DTD/svg11.dtd">
<svg xmlns="http://www.w3.org/2000/svg" version="1.1" width="800px" height="800px" style="shape-rendering:geometricPrecision; text-rendering:geometricPrecision; image-rendering:optimizeQuality; fill-rule:evenodd; clip-rule:evenodd" xmlns:xlink="http://www.w3.org/1999/xlink">
<g><path style="opacity:1" fill="#49d292" d="M -0.5,-0.5 C 266.167,-0.5 532.833,-0.5 799.5,-0.5C 799.5,266.167 799.5,532.833 799.5,799.5C 532.833,799.5 266.167,799.5 -0.5,799.5C -0.5,532.833 -0.5,266.167 -0.5,-0.5 Z"/></g>
<g><path style="opacity:1" fill="#e6f699" d="M 385.5,298.5 C 414.576,296.597 433.743,309.264 443,336.5C 449.797,340.79 450.13,345.457 444,350.5C 438.033,374.795 422.533,387.962 397.5,390C 370.296,390.815 354.463,377.648 350,350.5C 348.371,332.719 354.204,317.886 367.5,306C 373.149,302.402 379.149,299.902 385.5,298.5 Z"/></g>
<g><path style="opacity:1" fill="#52d392" d="M 386.5,306.5 C 408.38,309.221 419.713,321.721 420.5,344C 420.234,365.43 409.734,378.264 389,382.5C 375.479,381.074 366.146,374.074 361,361.5C 353.757,341.4 358.257,324.567 374.5,311C 378.432,308.972 382.432,307.472 386.5,306.5 Z"/></g>
<g><path style="opacity:1" fill="#e3f699" d="M 384.5,314.5 C 389.08,314.113 393.414,314.947 397.5,317C 394.461,323.577 391.295,330.077 388,336.5C 384.833,330.167 381.667,323.833 378.5,317.5C 380.594,316.482 382.594,315.482 384.5,314.5 Z"/></g>
<g><path style="opacity:1" fill="#e5f699" d="M 372.5,321.5 C 376.044,327.582 379.377,333.916 382.5,340.5C 376.193,341.664 369.859,341.831 363.5,341C 364.481,333.54 367.481,327.04 372.5,321.5 Z"/></g>
<g><path style="opacity:1" fill="#e5f699" d="M 401.5,321.5 C 404.721,322.882 407.221,325.215 409,328.5C 410.79,332.327 411.956,336.327 412.5,340.5C 406.132,340.83 399.798,340.496 393.5,339.5C 396.366,333.559 399.033,327.559 401.5,321.5 Z"/></g>
<g><path style="opacity:1" fill="#e7f799" d="M 159.5,334.5 C 192.833,334.5 226.167,334.5 259.5,334.5C 259.5,337.833 259.5,341.167 259.5,344.5C 226.167,344.5 192.833,344.5 159.5,344.5C 159.5,341.167 159.5,337.833 159.5,334.5 Z"/></g>
<g><path style="opacity:1" fill="#e7f799" d="M 539.5,334.5 C 572.833,334.5 606.167,334.5 639.5,334.5C 639.5,337.833 639.5,341.167 639.5,344.5C 606.167,344.5 572.833,344.5 539.5,344.5C 539.5,341.167 539.5,337.833 539.5,334.5 Z"/></g>
<g><path style="opacity:1" fill="#e7f699" d="M 393.5,348.5 C 399.653,347.347 405.986,347.18 412.5,348C 411.377,354.708 408.71,360.708 404.5,366C 403.668,366.688 403.002,366.521 402.5,365.5C 399.726,359.613 396.726,353.947 393.5,348.5 Z"/></g>
<g><path style="opacity:1" fill="#e6f699" d="M 364.5,348.5 C 370.537,348.171 376.537,348.504 382.5,349.5C 379.667,355.833 376.833,362.167 374,368.5C 367.878,363.255 364.711,356.588 364.5,348.5 Z"/></g>
<g><path style="opacity:1" fill="#e5f699" d="M 387.5,352.5 C 391.313,358.115 394.646,364.115 397.5,370.5C 391.803,375.358 385.803,375.691 379.5,371.5C 382.455,365.26 385.122,358.927 387.5,352.5 Z"/></g>
<g><path style="opacity:1" fill="#e7f799" d="M 159.5,354.5 C 206.167,354.5 252.833,354.5 299.5,354.5C 299.5,357.833 299.5,361.167 299.5,364.5C 252.833,364.5 206.167,364.5 159.5,364.5C 159.5,361.167 159.5,357.833 159.5,354.5 Z"/></g>
<g><path style="opacity:1" fill="#e7f799" d="M 499.5,354.5 C 546.167,354.5 592.833,354.5 639.5,354.5C 639.5,357.833 639.5,361.167 639.5,364.5C 592.833,364.5 546.167,364.5 499.5,364.5C 499.5,361.167 499.5,357.833 499.5,354.5 Z"/></g>
<g><path style="opacity:1" fill="#e7f799" d="M 159.5,374.5 C 219.5,374.5 279.5,374.5 339.5,374.5C 339.5,377.833 339.5,381.167 339.5,384.5C 279.5,384.5 219.5,384.5 159.5,384.5C 159.5,381.167 159.5,377.833 159.5,374.5 Z"/></g>
<g><path style="opacity:1" fill="#e7f799" d="M 459.5,374.5 C 519.5,374.5 579.5,374.5 639.5,374.5C 639.5,377.833 639.5,381.167 639.5,384.5C 579.5,384.5 519.5,384.5 459.5,384.5C 459.5,381.167 459.5,377.833 459.5,374.5 Z"/></g>
<g><path style="opacity:1" fill="#e3f599" d="M 560.5,438.5 C 565.493,438.997 566.493,441.164 563.5,445C 558.382,444.824 557.382,442.658 560.5,438.5 Z"/></g>
<g><path style="opacity:1" fill="#e3f599" d="M 622.5,438.5 C 627.493,438.997 628.493,441.164 625.5,445C 620.382,444.824 619.382,442.658 622.5,438.5 Z"/></g>
<g><path style="opacity:1" fill="#e6f699" d="M 115.5,478.5 C 113.854,473.073 112.854,467.406 112.5,461.5C 107.5,461.5 102.5,461.5 97.5,461.5C 97.8282,466.875 97.4948,472.208 96.5,477.5C 95.8165,477.863 95.1499,478.196 94.5,478.5C 93.5046,466.011 93.1713,453.344 93.5,440.5C 94.1667,440.167 94.8333,439.833 95.5,439.5C 96.1667,445.5 96.8333,451.5 97.5,457.5C 102.833,457.5 108.167,457.5 113.5,457.5C 113.334,451.824 113.501,446.157 114,440.5C 115,439.833 116,439.167 117,438.5C 117.667,451.5 117.667,464.5 117,477.5C 116.617,478.056 116.117,478.389 115.5,478.5 Z"/></g>
<g><path style="opacity:1" fill="#c4ef97" d="M 95.5,439.5 C 95.56,438.957 95.8933,438.624 96.5,438.5C 97.4963,444.798 97.8297,451.132 97.5,457.5C 96.8333,451.5 96.1667,445.5 95.5,439.5 Z"/></g>
<g><path style="opacity:1" fill="#e5f699" d="M 190.5,439.5 C 191.167,449.833 191.833,460.167 192.5,470.5C 194.334,475.577 197.667,476.744 202.5,474C 203.523,471.103 205.357,468.936 208,467.5C 207.876,476.283 203.376,480.116 194.5,479C 192.91,477.954 191.41,476.787 190,475.5C 188.874,469.437 188.374,463.271 188.5,457C 188.667,451.5 188.833,446 189,440.5C 189.383,439.944 189.883,439.611 190.5,439.5 Z"/></g>
<g><path style="opacity:1" fill="#c5ef97" d="M 190.5,439.5 C 190.56,438.957 190.893,438.624 191.5,438.5C 192.499,449.146 192.832,459.813 192.5,470.5C 191.833,460.167 191.167,449.833 190.5,439.5 Z"/></g>
<g><path style="opacity:1" fill="#ddf499" d="M 221.5,438.5 C 223.414,441.684 224.08,445.351 223.5,449.5C 227.884,449.174 232.217,449.508 236.5,450.5C 236.167,451.167 235.833,451.833 235.5,452.5C 231.555,453.491 227.555,453.824 223.5,453.5C 223.334,459.842 223.5,466.175 224,472.5C 226.971,476.092 230.304,476.425 234,473.5C 235.009,471.975 235.509,470.308 235.5,468.5C 236.822,468.67 237.989,468.337 239,467.5C 238.133,478.469 232.633,481.635 222.5,477C 220.959,475.421 219.792,473.587 219,471.5C 218.501,465.509 218.334,459.509 218.5,453.5C 215.226,453.372 215.059,452.039 218,449.5C 217.907,445.275 219.074,441.608 221.5,438.5 Z"/></g>
<g><path style="opacity:1" fill="#e3f699" d="M 268.5,478.5 C 266.848,471.39 265.848,464.057 265.5,456.5C 264.758,453.862 262.925,452.529 260,452.5C 257.849,452.643 256.182,453.643 255,455.5C 254.831,462.856 254.331,470.189 253.5,477.5C 252.817,477.863 252.15,478.196 251.5,478.5C 250.179,465.598 250.179,452.598 251.5,439.5C 252.15,439.196 252.817,438.863 253.5,438.5C 254.489,442.107 254.823,445.774 254.5,449.5C 267.4,447.91 272.733,453.743 270.5,467C 270.333,470.5 270.167,474 270,477.5C 269.617,478.056 269.117,478.389 268.5,478.5 Z"/></g>
<g><path style="opacity:1" fill="#e4f699" d="M 393.5,438.5 C 394.659,449.326 394.826,460.326 394,471.5C 391.747,477.926 387.247,480.426 380.5,479C 378,477.833 376.167,476 375,473.5C 374.333,467.167 374.333,460.833 375,454.5C 378.645,448.278 383.645,446.945 390,450.5C 390.333,447.167 390.667,443.833 391,440.5C 391.995,439.934 392.828,439.267 393.5,438.5 Z"/></g>
<g><path style="opacity:1" fill="#ddf499" d="M 500.5,438.5 C 502.414,441.684 503.08,445.351 502.5,449.5C 506.884,449.174 511.217,449.508 515.5,450.5C 515.167,451.167 514.833,451.833 514.5,452.5C 510.555,453.491 506.555,453.824 502.5,453.5C 502.334,459.842 502.5,466.175 503,472.5C 505.971,476.092 509.304,476.425 513,473.5C 514.009,471.975 514.509,470.308 514.5,468.5C 515.822,468.67 516.989,468.337 518,467.5C 517.133,478.469 511.633,481.635 501.5,477C 499.959,475.421 498.792,473.587 498,471.5C 497.501,465.509 497.334,459.509 497.5,453.5C 494.226,453.372 494.059,452.039 497,449.5C 496.907,445.275 498.074,441.608 500.5,438.5 Z"/></g>
<g><path style="opacity:1" fill="#ddf499" d="M 593.5,438.5 C 595.414,441.684 596.08,445.351 595.5,449.5C 599.884,449.174 604.217,449.508 608.5,450.5C 608.167,451.167 607.833,451.833 607.5,452.5C 603.555,453.491 599.555,453.824 595.5,453.5C 595.334,459.842 595.5,466.175 596,472.5C 598.971,476.092 602.304,476.425 606,473.5C 607.009,471.975 607.509,470.308 607.5,468.5C 608.822,468.67 609.989,468.337 611,467.5C 610.133,478.469 604.633,481.635 594.5,477C 592.959,475.421 591.792,473.587 591,471.5C 590.501,465.509 590.334,459.509 590.5,453.5C 587.226,453.372 587.059,452.039 590,449.5C 589.907,445.275 591.074,441.608 593.5,438.5 Z"/></g>
<g><path style="opacity:1" fill="#a1e795" d="M 93.5,440.5 C 93.1713,453.344 93.5046,466.011 94.5,478.5C 94.44,479.043 94.1067,479.376 93.5,479.5C 92.1748,466.339 92.1748,453.339 93.5,440.5 Z"/></g>
<g><path style="opacity:1" fill="#a1e695" d="M 251.5,439.5 C 250.179,452.598 250.179,465.598 251.5,478.5C 251.44,479.043 251.107,479.376 250.5,479.5C 250.167,472.833 249.833,466.167 249.5,459.5C 249.503,452.465 250.17,445.798 251.5,439.5 Z"/></g>
<g><path style="opacity:1" fill="#e3f599" d="M 132.5,448.5 C 142.283,448.111 146.617,452.611 145.5,462C 140.713,463.893 136.047,466.06 131.5,468.5C 131.07,475.186 134.07,477.02 140.5,474C 141.374,471.171 143.041,469.004 145.5,467.5C 146.301,474.715 142.968,478.715 135.5,479.5C 131.719,478.858 128.885,476.858 127,473.5C 126.333,467.167 126.333,460.833 127,454.5C 128.36,451.977 130.193,449.977 132.5,448.5 Z"/></g>
<g><path style="opacity:1" fill="#e4f699" d="M 175.5,478.5 C 173.862,474.087 172.862,469.421 172.5,464.5C 168.672,465.497 165.172,467.164 162,469.5C 161.175,471.701 161.675,473.534 163.5,475C 165.764,475.236 167.931,475.736 170,476.5C 170.456,477.744 169.956,478.577 168.5,479C 159.579,479.756 156.079,475.923 158,467.5C 159.167,466.333 160.333,465.167 161.5,464C 165.954,462.936 169.954,461.103 173.5,458.5C 172.329,453.584 169.329,451.751 164.5,453C 162.713,455.734 160.713,458.234 158.5,460.5C 157.112,453.631 159.945,449.631 167,448.5C 172.121,448.957 175.455,451.623 177,456.5C 177.667,463.5 177.667,470.5 177,477.5C 176.617,478.056 176.117,478.389 175.5,478.5 Z"/></g>
<g><path style="opacity:1" fill="#e4f699" d="M 330.5,478.5 C 328.862,474.087 327.862,469.421 327.5,464.5C 323.672,465.497 320.172,467.164 317,469.5C 316.175,471.701 316.675,473.534 318.5,475C 320.764,475.236 322.931,475.736 325,476.5C 325.456,477.744 324.956,478.577 323.5,479C 314.579,479.756 311.079,475.923 313,467.5C 314.167,466.333 315.333,465.167 316.5,464C 320.954,462.936 324.954,461.103 328.5,458.5C 327.329,453.584 324.329,451.751 319.5,453C 317.713,455.734 315.713,458.234 313.5,460.5C 312.112,453.631 314.945,449.631 322,448.5C 327.121,448.957 330.455,451.623 332,456.5C 332.667,463.5 332.667,470.5 332,477.5C 331.617,478.056 331.117,478.389 330.5,478.5 Z"/></g>
<g><path style="opacity:1" fill="#e3f699" d="M 361.5,478.5 C 359.848,471.39 358.848,464.057 358.5,456.5C 357.758,453.862 355.925,452.529 353,452.5C 350.849,452.643 349.182,453.643 348,455.5C 347.831,462.856 347.331,470.189 346.5,477.5C 345.817,477.863 345.15,478.196 344.5,478.5C 343.508,471.352 343.175,464.019 343.5,456.5C 346.131,449.062 351.131,446.895 358.5,450C 359.667,451.167 360.833,452.333 362,453.5C 363.568,461.421 363.901,469.421 363,477.5C 362.617,478.056 362.117,478.389 361.5,478.5 Z"/></g>
<g><path style="opacity:1" fill="#e3f699" d="M 454.5,478.5 C 452.848,471.39 451.848,464.057 451.5,456.5C 450.758,453.862 448.925,452.529 446,452.5C 443.849,452.643 442.182,453.643 441,455.5C 440.831,462.856 440.331,470.189 439.5,477.5C 438.817,477.863 438.15,478.196 437.5,478.5C 436.508,471.352 436.175,464.019 436.5,456.5C 439.131,449.062 444.131,446.895 451.5,450C 452.667,451.167 453.833,452.333 455,453.5C 456.568,461.421 456.901,469.421 456,477.5C 455.617,478.056 455.117,478.389 454.5,478.5 Z"/></g>
<g><path style="opacity:1" fill="#e1f599" d="M 530.5,478.5 C 529.508,471.352 529.175,464.019 529.5,456.5C 532.131,449.062 537.131,446.895 544.5,450C 547.178,451.841 548.845,454.341 549.5,457.5C 548.653,458.845 547.487,459.845 546,460.5C 544.476,452.397 540.476,450.731 534,455.5C 533.831,462.856 533.331,470.189 532.5,477.5C 531.817,477.863 531.15,478.196 530.5,478.5 Z"/></g>
<g><path style="opacity:1" fill="#e3f699" d="M 659.5,448.5 C 666.247,447.566 670.747,450.232 673,456.5C 673.861,462.585 673.527,468.585 672,474.5C 665.471,481.493 659.471,481.159 654,473.5C 653.333,467.167 653.333,460.833 654,454.5C 655.36,451.977 657.193,449.977 659.5,448.5 Z"/></g>
<g><path style="opacity:1" fill="#e3f699" d="M 702.5,478.5 C 700.848,471.39 699.848,464.057 699.5,456.5C 698.758,453.862 696.925,452.529 694,452.5C 691.849,452.643 690.182,453.643 689,455.5C 688.831,462.856 688.331,470.189 687.5,477.5C 686.817,477.863 686.15,478.196 685.5,478.5C 684.508,471.352 684.175,464.019 684.5,456.5C 687.131,449.062 692.131,446.895 699.5,450C 700.667,451.167 701.833,452.333 703,453.5C 704.568,461.421 704.901,469.421 704,477.5C 703.617,478.056 703.117,478.389 702.5,478.5 Z"/></g>
<g><path style="opacity:1" fill="#e6f699" d="M 469.5,449.5 C 470.167,456.5 470.833,463.5 471.5,470.5C 473.63,475.832 477.13,476.832 482,473.5C 483.267,465.938 483.934,458.271 484,450.5C 485,449.833 486,449.167 487,448.5C 487.667,456.167 487.667,463.833 487,471.5C 483.547,479.318 478.047,481.151 470.5,477C 469.299,476.097 468.465,474.931 468,473.5C 467.333,465.833 467.333,458.167 468,450.5C 468.383,449.944 468.883,449.611 469.5,449.5 Z"/></g>
<g><path style="opacity:1" fill="#c4ef97" d="M 469.5,449.5 C 469.56,448.957 469.893,448.624 470.5,448.5C 471.497,455.803 471.831,463.137 471.5,470.5C 470.833,463.5 470.167,456.5 469.5,449.5 Z"/></g>
<g><path style="opacity:1" fill="#e5f699" d="M 562.5,449.5 C 563.167,456.5 563.833,463.5 564.5,470.5C 566.63,475.832 570.13,476.832 575,473.5C 576.009,471.975 576.509,470.308 576.5,468.5C 577.822,468.67 578.989,468.337 580,467.5C 580.369,474.472 577.036,478.472 570,479.5C 561.078,477.092 557.911,471.259 560.5,462C 560.667,458.167 560.833,454.333 561,450.5C 561.383,449.944 561.883,449.611 562.5,449.5 Z"/></g>
<g><path style="opacity:1" fill="#c4ef97" d="M 562.5,449.5 C 562.56,448.957 562.893,448.624 563.5,448.5C 564.497,455.803 564.831,463.137 564.5,470.5C 563.833,463.5 563.167,456.5 562.5,449.5 Z"/></g>
<g><path style="opacity:1" fill="#e5f699" d="M 624.5,449.5 C 625.167,456.5 625.833,463.5 626.5,470.5C 628.63,475.832 632.13,476.832 637,473.5C 638.009,471.975 638.509,470.308 638.5,468.5C 639.822,468.67 640.989,468.337 642,467.5C 642.369,474.472 639.036,478.472 632,479.5C 623.078,477.092 619.911,471.259 622.5,462C 622.667,458.167 622.833,454.333 623,450.5C 623.383,449.944 623.883,449.611 624.5,449.5 Z"/></g>
<g><path style="opacity:1" fill="#c4ef97" d="M 624.5,449.5 C 624.56,448.957 624.893,448.624 625.5,448.5C 626.497,455.803 626.831,463.137 626.5,470.5C 625.833,463.5 625.167,456.5 624.5,449.5 Z"/></g>
<g><path style="opacity:1" fill="#53d392" d="M 133.5,452.5 C 138.333,451.75 141.333,453.75 142.5,458.5C 138.626,460.566 134.626,462.233 130.5,463.5C 129.807,459.247 130.807,455.581 133.5,452.5 Z"/></g>
<g><path style="opacity:1" fill="#51d392" d="M 381.5,452.5 C 385.355,451.845 388.188,453.179 390,456.5C 390.667,461.5 390.667,466.5 390,471.5C 386.74,476.285 383.073,476.619 379,472.5C 378.333,466.833 378.333,461.167 379,455.5C 380.045,454.627 380.878,453.627 381.5,452.5 Z"/></g>
<g><path style="opacity:1" fill="#51d392" d="M 660.5,452.5 C 664.355,451.845 667.188,453.179 669,456.5C 669.667,461.5 669.667,466.5 669,471.5C 665.74,476.285 662.073,476.619 658,472.5C 657.333,466.833 657.333,461.167 658,455.5C 659.045,454.627 659.878,453.627 660.5,452.5 Z"/></g>
<g><path style="opacity:1" fill="#7ede94" d="M 265.5,456.5 C 265.848,464.057 266.848,471.39 268.5,478.5C 267.791,479.404 266.791,479.737 265.5,479.5C 265.5,471.833 265.5,464.167 265.5,456.5 Z"/></g>
<g><path style="opacity:1" fill="#a0e695" d="M 343.5,456.5 C 343.175,464.019 343.508,471.352 344.5,478.5C 344.44,479.043 344.107,479.376 343.5,479.5C 342.18,471.677 342.18,464.01 343.5,456.5 Z"/></g>
<g><path style="opacity:1" fill="#7ede94" d="M 358.5,456.5 C 358.848,464.057 359.848,471.39 361.5,478.5C 360.791,479.404 359.791,479.737 358.5,479.5C 358.5,471.833 358.5,464.167 358.5,456.5 Z"/></g>
<g><path style="opacity:1" fill="#a0e695" d="M 436.5,456.5 C 436.175,464.019 436.508,471.352 437.5,478.5C 437.44,479.043 437.107,479.376 436.5,479.5C 435.18,471.677 435.18,464.01 436.5,456.5 Z"/></g>
<g><path style="opacity:1" fill="#7ede94" d="M 451.5,456.5 C 451.848,464.057 452.848,471.39 454.5,478.5C 453.791,479.404 452.791,479.737 451.5,479.5C 451.5,471.833 451.5,464.167 451.5,456.5 Z"/></g>
<g><path style="opacity:1" fill="#a0e695" d="M 529.5,456.5 C 529.175,464.019 529.508,471.352 530.5,478.5C 530.44,479.043 530.107,479.376 529.5,479.5C 528.18,471.677 528.18,464.01 529.5,456.5 Z"/></g>
<g><path style="opacity:1" fill="#a0e695" d="M 684.5,456.5 C 684.175,464.019 684.508,471.352 685.5,478.5C 685.44,479.043 685.107,479.376 684.5,479.5C 683.18,471.677 683.18,464.01 684.5,456.5 Z"/></g>
<g><path style="opacity:1" fill="#7ede94" d="M 699.5,456.5 C 699.848,464.057 700.848,471.39 702.5,478.5C 701.791,479.404 700.791,479.737 699.5,479.5C 699.5,471.833 699.5,464.167 699.5,456.5 Z"/></g>
<g><path style="opacity:1" fill="#7dde94" d="M 112.5,461.5 C 112.854,467.406 113.854,473.073 115.5,478.5C 114.791,479.404 113.791,479.737 112.5,479.5C 112.5,473.5 112.5,467.5 112.5,461.5 Z"/></g>
<g><path style="opacity:1" fill="#7dde94" d="M 172.5,464.5 C 172.862,469.421 173.862,474.087 175.5,478.5C 174.791,479.404 173.791,479.737 172.5,479.5C 172.5,474.5 172.5,469.5 172.5,464.5 Z"/></g>
<g><path style="opacity:1" fill="#7dde94" d="M 327.5,464.5 C 327.862,469.421 328.862,474.087 330.5,478.5C 329.791,479.404 328.791,479.737 327.5,479.5C 327.5,474.5 327.5,469.5 327.5,464.5 Z"/></g>
</svg>
