<svg width="187" height="62" viewBox="0 0 187 62" fill="none" xmlns="http://www.w3.org/2000/svg">
<rect width="187" height="62" fill="#FFF9C7"/>
<path d="M58.6513 42V20.1818H63.9247V37.7173H73.0014V42H58.6513ZM83.3699 42.3089C81.6511 42.3089 80.1738 41.9574 78.938 41.2543C77.7093 40.544 76.7612 39.5568 76.0936 38.2926C75.4331 37.0213 75.1028 35.5476 75.1028 33.8714C75.1028 32.1882 75.4331 30.7145 76.0936 29.4503C76.7612 28.179 77.7093 27.1918 78.938 26.4886C80.1738 25.7784 81.6511 25.4233 83.3699 25.4233C85.0886 25.4233 86.5623 25.7784 87.791 26.4886C89.0268 27.1918 89.975 28.179 90.6355 29.4503C91.3031 30.7145 91.6369 32.1882 91.6369 33.8714C91.6369 35.5476 91.3031 37.0213 90.6355 38.2926C89.975 39.5568 89.0268 40.544 87.791 41.2543C86.5623 41.9574 85.0886 42.3089 83.3699 42.3089ZM83.4018 38.3778C84.0268 38.3778 84.5559 38.1861 84.9892 37.8026C85.4224 37.419 85.7527 36.8864 85.9799 36.2045C86.2143 35.5227 86.3315 34.7344 86.3315 33.8395C86.3315 32.9304 86.2143 32.1349 85.9799 31.4531C85.7527 30.7713 85.4224 30.2386 84.9892 29.8551C84.5559 29.4716 84.0268 29.2798 83.4018 29.2798C82.7555 29.2798 82.2086 29.4716 81.7612 29.8551C81.3208 30.2386 80.9835 30.7713 80.7491 31.4531C80.5218 32.1349 80.4082 32.9304 80.4082 33.8395C80.4082 34.7344 80.5218 35.5227 80.7491 36.2045C80.9835 36.8864 81.3208 37.419 81.7612 37.8026C82.2086 38.1861 82.7555 38.3778 83.4018 38.3778ZM101.933 48.4773C100.378 48.4773 99.0463 48.2607 97.9384 47.8274C96.8304 47.3942 95.9604 46.8011 95.3283 46.0483C94.6962 45.2955 94.3162 44.4432 94.1884 43.4915L99.1209 43.2145C99.2132 43.5483 99.3837 43.8395 99.6323 44.0881C99.888 44.3366 100.218 44.5284 100.623 44.6634C101.035 44.7983 101.518 44.8658 102.072 44.8658C102.945 44.8658 103.666 44.6527 104.235 44.2266C104.81 43.8075 105.097 43.0724 105.097 42.0213V39.1449H104.916C104.71 39.6491 104.398 40.1001 103.979 40.4979C103.56 40.8956 103.038 41.2081 102.413 41.4354C101.795 41.6626 101.085 41.7763 100.282 41.7763C99.089 41.7763 97.9952 41.4993 97.0009 40.9453C96.0137 40.3842 95.2218 39.5178 94.6252 38.3459C94.0357 37.1669 93.7409 35.6506 93.7409 33.7969C93.7409 31.8864 94.0463 30.3132 94.6571 29.0774C95.2679 27.8345 96.0669 26.9148 97.0542 26.3182C98.0485 25.7216 99.1174 25.4233 100.261 25.4233C101.12 25.4233 101.855 25.5724 102.466 25.8707C103.084 26.1619 103.592 26.5384 103.99 27C104.387 27.4616 104.689 27.9411 104.895 28.4382H105.044V25.6364H110.232V42.0639C110.232 43.4489 109.884 44.6172 109.188 45.5689C108.492 46.5206 107.519 47.2415 106.269 47.7315C105.019 48.2287 103.574 48.4773 101.933 48.4773ZM102.093 37.9837C102.725 37.9837 103.265 37.8168 103.713 37.483C104.16 37.1491 104.504 36.6697 104.746 36.0447C104.987 35.4197 105.108 34.6705 105.108 33.7969C105.108 32.9091 104.987 32.1456 104.746 31.5064C104.512 30.8601 104.167 30.3629 103.713 30.0149C103.265 29.6669 102.725 29.4929 102.093 29.4929C101.447 29.4929 100.9 29.6705 100.453 30.0256C100.005 30.3807 99.6642 30.8814 99.4299 31.5277C99.2026 32.1669 99.089 32.9233 99.089 33.7969C99.089 34.6705 99.2061 35.4197 99.4405 36.0447C99.6749 36.6697 100.012 37.1491 100.453 37.483C100.9 37.8168 101.447 37.9837 102.093 37.9837ZM121.192 42.3089C119.473 42.3089 117.996 41.9574 116.76 41.2543C115.532 40.544 114.583 39.5568 113.916 38.2926C113.255 37.0213 112.925 35.5476 112.925 33.8714C112.925 32.1882 113.255 30.7145 113.916 29.4503C114.583 28.179 115.532 27.1918 116.76 26.4886C117.996 25.7784 119.473 25.4233 121.192 25.4233C122.911 25.4233 124.385 25.7784 125.613 26.4886C126.849 27.1918 127.797 28.179 128.458 29.4503C129.125 30.7145 129.459 32.1882 129.459 33.8714C129.459 35.5476 129.125 37.0213 128.458 38.2926C127.797 39.5568 126.849 40.544 125.613 41.2543C124.385 41.9574 122.911 42.3089 121.192 42.3089ZM121.224 38.3778C121.849 38.3778 122.378 38.1861 122.811 37.8026C123.245 37.419 123.575 36.8864 123.802 36.2045C124.037 35.5227 124.154 34.7344 124.154 33.8395C124.154 32.9304 124.037 32.1349 123.802 31.4531C123.575 30.7713 123.245 30.2386 122.811 29.8551C122.378 29.4716 121.849 29.2798 121.224 29.2798C120.578 29.2798 120.031 29.4716 119.583 29.8551C119.143 30.2386 118.806 30.7713 118.571 31.4531C118.344 32.1349 118.23 32.9304 118.23 33.8395C118.23 34.7344 118.344 35.5227 118.571 36.2045C118.806 36.8864 119.143 37.419 119.583 37.8026C120.031 38.1861 120.578 38.3778 121.224 38.3778Z" fill="black"/>
<path d="M47 31C47 40.9411 38.4934 49 28 49C17.5066 49 9 40.9411 9 31C9 21.0589 17.5066 13 28 13C38.4934 13 47 21.0589 47 31Z" fill="#100101"/>
</svg>
